<svg width="20" height="20" viewBox="0 0 20 20" fill="none" xmlns="http://www.w3.org/2000/svg">
<rect y="-0.000732422" width="20" height="20" rx="5" fill="#0077B6"/>
<path fill-rule="evenodd" clip-rule="evenodd" d="M3 2.99927H3.875V16.1243H17V16.9993H3V2.99927ZM11.75 6.06177C11.75 5.94574 11.7961 5.83446 11.8781 5.75241C11.9602 5.67036 12.0715 5.62427 12.1875 5.62427H15.6875C15.8035 5.62427 15.9148 5.67036 15.9969 5.75241C16.0789 5.83446 16.125 5.94574 16.125 6.06177V9.56177C16.125 9.6778 16.0789 9.78908 15.9969 9.87113C15.9148 9.95317 15.8035 9.99927 15.6875 9.99927C15.5715 9.99927 15.4602 9.95317 15.3781 9.87113C15.2961 9.78908 15.25 9.6778 15.25 9.56177V7.28677L12.0886 11.1516C12.0499 11.1989 12.0018 11.2375 11.9472 11.265C11.8927 11.2925 11.833 11.3083 11.772 11.3113C11.7111 11.3144 11.6501 11.3046 11.5931 11.2827C11.5361 11.2608 11.4843 11.2272 11.4411 11.184L9.1775 8.92039L5.9785 13.319C5.90852 13.408 5.80677 13.4664 5.69464 13.4819C5.5825 13.4975 5.46871 13.4689 5.37718 13.4023C5.28564 13.3357 5.22349 13.2362 5.20378 13.1247C5.18408 13.0132 5.20835 12.8985 5.2715 12.8045L8.7715 7.99202C8.80865 7.94084 8.85645 7.89833 8.91161 7.86741C8.96677 7.83648 9.02798 7.81789 9.09102 7.8129C9.15406 7.80791 9.21744 7.81664 9.27678 7.8385C9.33612 7.86036 9.39001 7.89482 9.43475 7.93952L11.7176 10.2233L14.7644 6.49927H12.1875C12.0715 6.49927 11.9602 6.45317 11.8781 6.37113C11.7961 6.28908 11.75 6.1778 11.75 6.06177Z" fill="white"/>
</svg>
