<svg width="30" height="30" viewBox="0 0 30 30" fill="none" xmlns="http://www.w3.org/2000/svg">
<rect width="30" height="30" rx="5" fill="#DDF3FF"/>
<path fill-rule="evenodd" clip-rule="evenodd" d="M6.19297 23.807C6.41264 24.0267 6.76879 24.0267 6.98846 23.807L11.5967 19.1988L11.5967 22.3126C11.5967 22.6232 11.8485 22.8751 12.1592 22.8751C12.4698 22.8751 12.7217 22.6232 12.7217 22.3126L12.7217 17.8408C12.7217 17.5302 12.4698 17.2783 12.1592 17.2783L7.68749 17.2783C7.37683 17.2783 7.12499 17.5302 7.12499 17.8408C7.12499 18.1515 7.37683 18.4033 7.68749 18.4033L10.8012 18.4033L6.19297 23.0116C5.9733 23.2312 5.9733 23.5874 6.19297 23.807Z" fill="#98C3DA"/>
<path fill-rule="evenodd" clip-rule="evenodd" d="M23.807 23.807C23.5874 24.0267 23.2312 24.0267 23.0115 23.807L18.4033 19.1988L18.4033 22.3126C18.4033 22.6232 18.1515 22.8751 17.8408 22.8751C17.5302 22.8751 17.2783 22.6232 17.2783 22.3126L17.2783 17.8408C17.2783 17.5302 17.5302 17.2783 17.8408 17.2783L22.3125 17.2783C22.6232 17.2783 22.875 17.5302 22.875 17.8408C22.875 18.1515 22.6232 18.4033 22.3125 18.4033L19.1988 18.4033L23.807 23.0116C24.0267 23.2312 24.0267 23.5874 23.807 23.807Z" fill="#98C3DA"/>
<path fill-rule="evenodd" clip-rule="evenodd" d="M23.807 6.19295C23.5874 5.97328 23.2312 5.97328 23.0115 6.19295L18.4033 10.8012L18.4033 7.68742C18.4033 7.37676 18.1515 7.12492 17.8408 7.12492C17.5302 7.12492 17.2783 7.37676 17.2783 7.68742L17.2783 12.1592C17.2783 12.4698 17.5302 12.7217 17.8408 12.7217L22.3125 12.7217C22.6232 12.7217 22.875 12.4698 22.875 12.1592C22.875 11.8485 22.6232 11.5967 22.3125 11.5967L19.1988 11.5967L23.807 6.98845C24.0267 6.76878 24.0267 6.41262 23.807 6.19295Z" fill="#98C3DA"/>
<path fill-rule="evenodd" clip-rule="evenodd" d="M6.19297 6.19295C6.41264 5.97328 6.76879 5.97328 6.98846 6.19295L11.5967 10.8012L11.5967 7.68742C11.5967 7.37676 11.8485 7.12492 12.1592 7.12492C12.4698 7.12492 12.7217 7.37676 12.7217 7.68742L12.7217 12.1592C12.7217 12.4698 12.4698 12.7217 12.1592 12.7217L7.68749 12.7217C7.37683 12.7217 7.12499 12.4698 7.12499 12.1592C7.12499 11.8485 7.37683 11.5967 7.68749 11.5967L10.8012 11.5967L6.19297 6.98845C5.9733 6.76878 5.9733 6.41262 6.19297 6.19295Z" fill="#98C3DA"/>
</svg>
