<svg width="21" height="20" viewBox="0 0 21 20" fill="none" xmlns="http://www.w3.org/2000/svg">
<rect x="0.5" width="20" height="20" rx="5" fill="black"/>
<path fill-rule="evenodd" clip-rule="evenodd" d="M10.2003 0C10.15 4.05386 9.87325 6.33233 8.35279 7.85279C6.83233 9.37325 4.55387 9.64996 0.5 9.70033V10.2997C4.55387 10.35 6.83233 10.6267 8.35279 12.1472C9.87325 13.6677 10.15 15.9461 10.2003 20H10.7997C10.85 15.9461 11.1267 13.6677 12.6472 12.1472C14.1677 10.6267 16.4461 10.35 20.5 10.2997V9.70033C16.4461 9.64996 14.1677 9.37325 12.6472 7.85279C11.1267 6.33233 10.85 4.05386 10.7997 0H10.2003Z" fill="white"/>
</svg>
