<svg width="21" height="20" viewBox="0 0 21 20" fill="none" xmlns="http://www.w3.org/2000/svg">
<rect x="0.5" width="20" height="20" rx="5" fill="#1877F2"/>
<path d="M17.4136 9.99976C17.4136 6.19716 14.3024 3.08594 10.4998 3.08594C6.69716 3.08594 3.58594 6.19716 3.58594 9.99976C3.58594 13.4567 6.0922 16.3086 9.37626 16.8272V11.9875H7.64781V9.99976H9.37626V8.44415C9.37626 6.71569 10.4133 5.76504 11.9689 5.76504C12.7467 5.76504 13.5246 5.93789 13.5246 5.93789V7.66634H12.6603C11.7961 7.66634 11.5368 8.18488 11.5368 8.70341V9.99976H13.4381L13.0924 11.9875H11.4504V16.9136C14.9073 16.395 17.4136 13.4567 17.4136 9.99976Z" fill="white"/>
</svg>
