<svg width="21" height="20" viewBox="0 0 21 20" fill="none" xmlns="http://www.w3.org/2000/svg">
<rect x="0.5" width="20" height="20" rx="5" fill="#D7004D"/>
<path d="M15.0772 6.26364C15.0772 5.79835 14.7001 5.42266 14.2365 5.42266C13.7729 5.42266 13.3955 5.79835 13.3955 6.26364C13.3955 6.72721 13.7729 7.10291 14.2365 7.10291C14.7001 7.10291 15.0772 6.72721 15.0772 6.26364Z" fill="white"/>
<path d="M16.1972 12.8283C16.166 13.5108 16.0519 13.8817 15.9571 14.128C15.8298 14.4545 15.6779 14.6881 15.4316 14.933C15.1881 15.1779 14.9545 15.3294 14.628 15.4553C14.3817 15.5515 14.0094 15.666 13.3269 15.6986C12.589 15.7311 12.3703 15.738 10.4991 15.738C8.62966 15.738 8.40928 15.7311 7.67138 15.6986C6.98885 15.666 6.61834 15.5515 6.37201 15.4553C6.04372 15.3294 5.81195 15.1779 5.56702 14.933C5.32036 14.6881 5.16849 14.4545 5.04292 14.128C4.94811 13.8817 4.83224 13.5108 4.80281 12.8283C4.76685 12.0904 4.76026 11.8683 4.76026 10.0009C4.76026 8.12966 4.76685 7.90928 4.80281 7.17138C4.83224 6.48885 4.94811 6.11834 5.04292 5.86994C5.16849 5.54372 5.32036 5.31158 5.56702 5.06666C5.81195 4.82209 6.04372 4.67021 6.37201 4.54292C6.61834 4.4464 6.98885 4.33361 7.67138 4.3011C8.40928 4.26857 8.62966 4.26026 10.4991 4.26026C12.3703 4.26026 12.589 4.26857 13.3269 4.3011C14.0094 4.33361 14.3817 4.4464 14.628 4.54292C14.9545 4.67021 15.1881 4.82209 15.4316 5.06666C15.6779 5.31158 15.8298 5.54372 15.9571 5.86994C16.0519 6.11834 16.166 6.48885 16.1972 7.17138C16.2314 7.90928 16.2397 8.12966 16.2397 10.0009C16.2397 11.8683 16.2314 12.0904 16.1972 12.8283ZM17.4574 7.11396C17.4232 6.3681 17.3056 5.85852 17.1309 5.41469C16.9531 4.95423 16.7147 4.56401 16.3245 4.17379C15.936 3.7853 15.5458 3.54694 15.0853 3.36705C14.6397 3.19407 14.1319 3.07506 13.3857 3.04255C12.6395 3.00656 12.4011 3 10.4991 3C8.59886 3 8.35879 3.00656 7.61259 3.04255C6.8681 3.07506 6.3606 3.19407 5.91296 3.36705C5.45424 3.54694 5.06401 3.7853 4.67553 4.17379C4.2853 4.56401 4.04694 4.95423 3.86739 5.41469C3.69441 5.85852 3.5768 6.3681 3.54081 7.11396C3.5083 7.86016 3.5 8.09886 3.5 10.0009C3.5 11.9011 3.5083 12.1395 3.54081 12.8857C3.5768 13.6302 3.69441 14.1394 3.86739 14.5853C4.04694 15.044 4.2853 15.436 4.67553 15.8245C5.06401 16.213 5.45424 16.4531 5.91296 16.6326C6.3606 16.8056 6.8681 16.9232 7.61259 16.9574C8.35879 16.9917 8.59886 17 10.4991 17C12.4011 17 12.6395 16.9917 13.3857 16.9574C14.1319 16.9232 14.6397 16.8056 15.0853 16.6326C15.5458 16.4531 15.936 16.213 16.3245 15.8245C16.7147 15.436 16.9531 15.044 17.1309 14.5853C17.3056 14.1394 17.4232 13.6302 17.4574 12.8857C17.4917 12.1395 17.5 11.9011 17.5 10.0009C17.5 8.09886 17.4917 7.86016 17.4574 7.11396Z" fill="white"/>
<path d="M10.4991 12.3321C9.21112 12.3321 8.16603 11.2887 8.16603 10.0008C8.16603 8.71076 9.21112 7.66603 10.4991 7.66603C11.7874 7.66603 12.8339 8.71076 12.8339 10.0008C12.8339 11.2887 11.7874 12.3321 10.4991 12.3321ZM10.4991 6.40402C8.5137 6.40402 6.90576 8.01541 6.90576 10.0008C6.90576 11.9844 8.5137 13.5941 10.4991 13.5941C12.4844 13.5941 14.0941 11.9844 14.0941 10.0008C14.0941 8.01541 12.4844 6.40402 10.4991 6.40402Z" fill="white"/>
</svg>
