<svg width="30" height="31" viewBox="0 0 30 31" fill="none" xmlns="http://www.w3.org/2000/svg">
<rect y="0.344849" width="30" height="30" rx="4" fill="#DDF3FF"/>
<path fill-rule="evenodd" clip-rule="evenodd" d="M25.8763 16.0716C25.8763 15.3019 25.2523 14.6779 24.4826 14.6779L8.33567 14.6779L13.7909 9.22274C14.3351 8.67847 14.3351 7.79603 13.7909 7.25177C13.2466 6.7075 12.3642 6.7075 11.8199 7.25177L3.98553 15.0861C3.44126 15.6304 3.44126 16.5128 3.98553 17.0571L11.8198 24.8914C12.3641 25.4356 13.2465 25.4356 13.7908 24.8914C14.335 24.3471 14.335 23.4647 13.7908 22.9204L8.33567 17.4653L24.4826 17.4653C25.2523 17.4653 25.8763 16.8413 25.8763 16.0716Z" fill="#98C3DA"/>
</svg>
