<svg width="21" height="20" viewBox="0 0 21 20" fill="none" xmlns="http://www.w3.org/2000/svg">
<rect x="0.5" width="20" height="20" rx="5" fill="#0096C7"/>
<g clip-path="url(#clip0_1539_19581)">
<path d="M10.8525 4.98852C10.744 4.93074 10.6229 4.90052 10.5 4.90052C10.3771 4.90052 10.256 4.93074 10.1475 4.98852L5.6475 7.38852C5.52752 7.45241 5.42715 7.54771 5.35714 7.66422C5.28712 7.78074 5.25009 7.91409 5.25 8.05002V8.66277L9.5625 11.2503L10.5 10.6878L11.4375 11.2503L15.75 8.66277V8.05002C15.7499 7.91409 15.7129 7.78074 15.6429 7.66422C15.5728 7.54771 15.4725 7.45241 15.3525 7.38852L10.8525 4.98852ZM15.75 9.53727L12.1665 11.6875L15.75 13.8378V9.53727ZM15.7238 14.6973L10.5 11.5615L5.27625 14.6965C5.31939 14.8554 5.41364 14.9957 5.54444 15.0958C5.67524 15.1958 5.83533 15.25 6 15.25H15C15.1647 15.25 15.3248 15.1958 15.4556 15.0958C15.5864 14.9957 15.6806 14.8554 15.7238 14.6965V14.6973ZM5.25 13.837L8.8335 11.6868L5.25 9.53727V13.8378V13.837ZM9.79425 4.32627C10.0115 4.21045 10.2538 4.14987 10.5 4.14987C10.7462 4.14987 10.9885 4.21045 11.2057 4.32627L15.7057 6.72627C15.9457 6.85421 16.1463 7.04496 16.2862 7.27813C16.4261 7.5113 16.5 7.77811 16.5 8.05002V14.5C16.5 14.8978 16.342 15.2794 16.0607 15.5607C15.7794 15.842 15.3978 16 15 16H6C5.60218 16 5.22064 15.842 4.93934 15.5607C4.65804 15.2794 4.5 14.8978 4.5 14.5V8.05002C4.49997 7.77811 4.57386 7.5113 4.71376 7.27813C4.85366 7.04496 5.05431 6.85421 5.29425 6.72627L9.79425 4.32627Z" fill="white"/>
</g>
<defs>
<clipPath id="clip0_1539_19581">
<rect width="12" height="12" fill="white" transform="translate(4.5 4)"/>
</clipPath>
</defs>
</svg>
