<svg width="20" height="21" viewBox="0 0 20 21" fill="none" xmlns="http://www.w3.org/2000/svg">
<rect y="0.94043" width="20" height="20" rx="5" fill="#0077B6"/>
<path fill-rule="evenodd" clip-rule="evenodd" d="M11.5172 4.02537C11.6057 4.09243 11.6577 4.19694 11.6579 4.30792L11.663 7.00933C11.6634 7.20565 11.5046 7.3651 11.3082 7.36547C11.1119 7.36585 10.9525 7.207 10.9521 7.01068L10.9496 5.68893C10.6881 6.10499 10.3459 6.60028 9.91419 7.13362C8.71732 8.61227 6.82812 10.3888 4.06147 11.5742C3.88102 11.6515 3.67205 11.5679 3.59474 11.3874C3.51742 11.207 3.60103 10.998 3.78148 10.9207C6.41733 9.79133 8.2186 8.09841 9.36159 6.68633C9.93296 5.98045 10.3387 5.34611 10.6007 4.89017C10.6047 4.88318 10.6087 4.87623 10.6126 4.86933L8.64678 5.41588C8.45763 5.46847 8.26167 5.35777 8.20908 5.16862C8.15649 4.97947 8.2672 4.78351 8.45634 4.73092L11.2072 3.96612C11.3141 3.93639 11.4288 3.95831 11.5172 4.02537Z" fill="white"/>
<path d="M6.18163 15.7441H4.37215V17.3619H6.18163V15.7441ZM11.105 13.7656H8.91337V17.2612H11.105V13.7656ZM15.605 11.0981V17.1133H13.7328V11.0981L15.605 11.0981ZM13.7328 10.3514C13.2158 10.3514 12.7968 10.5929 12.7968 10.8907V17.3619C12.7968 17.6598 13.2158 17.9012 13.7328 17.9012H15.605C16.1219 17.9012 16.541 17.6598 16.541 17.3619V10.8907C16.541 10.5929 16.1219 10.3514 15.605 10.3514H13.7328ZM8.11642 13.5871C8.11642 13.2892 8.53551 13.0478 9.05249 13.0478H10.9246C11.4416 13.0478 11.8607 13.2892 11.8607 13.5871V17.3619C11.8607 17.6598 11.4416 17.9012 10.9246 17.9012H9.05249C8.53551 17.9012 8.11642 17.6598 8.11642 17.3619V13.5871ZM3.6521 15.7441C3.6521 15.4463 3.85518 15.2049 4.37215 15.2049H6.24429C6.76126 15.2049 6.91842 15.4463 6.91842 15.7441V17.3619C6.91842 17.6598 6.76126 17.9012 6.24429 17.9012H4.37215C3.85518 17.9012 3.6521 17.6598 3.6521 17.3619V15.7441Z" fill="white"/>
</svg>
