<svg width="20" height="21" viewBox="0 0 20 21" fill="none" xmlns="http://www.w3.org/2000/svg">
<rect y="0.94043" width="20" height="20" rx="5" fill="#98C3DA"/>
<path fill-rule="evenodd" clip-rule="evenodd" d="M11.5177 4.02537C11.6062 4.09243 11.6582 4.19694 11.6584 4.30792L11.6635 7.00933C11.6639 7.20565 11.5051 7.3651 11.3087 7.36547C11.1124 7.36585 10.953 7.207 10.9526 7.01068L10.9501 5.68893C10.6886 6.10499 10.3464 6.60028 9.91468 7.13362C8.71781 8.61227 6.82861 10.3888 4.06196 11.5742C3.88151 11.6515 3.67254 11.5679 3.59523 11.3874C3.51791 11.207 3.60152 10.998 3.78197 10.9207C6.41781 9.79133 8.21909 8.09841 9.36208 6.68633C9.93345 5.98045 10.3392 5.34611 10.6012 4.89017C10.6052 4.88318 10.6092 4.87623 10.6131 4.86933L8.64726 5.41588C8.45812 5.46847 8.26216 5.35777 8.20957 5.16862C8.15698 4.97947 8.26769 4.78351 8.45683 4.73092L11.2077 3.96612C11.3146 3.93639 11.4293 3.95831 11.5177 4.02537Z" fill="white"/>
<path d="M6.18187 15.7441H4.3724V17.3619H6.18187V15.7441ZM11.1052 13.7656H8.91362V17.2612H11.1052V13.7656ZM15.6052 11.0981V17.1133H13.7331V11.0981L15.6052 11.0981ZM13.7331 10.3514C13.2161 10.3514 12.797 10.5929 12.797 10.8907V17.3619C12.797 17.6598 13.2161 17.9012 13.7331 17.9012H15.6052C16.1222 17.9012 16.5413 17.6598 16.5413 17.3619V10.8907C16.5413 10.5929 16.1222 10.3514 15.6052 10.3514H13.7331ZM8.11666 13.5871C8.11666 13.2892 8.53576 13.0478 9.05273 13.0478H10.9249C11.4418 13.0478 11.8609 13.2892 11.8609 13.5871V17.3619C11.8609 17.6598 11.4418 17.9012 10.9249 17.9012H9.05273C8.53576 17.9012 8.11666 17.6598 8.11666 17.3619V13.5871ZM3.65234 15.7441C3.65234 15.4463 3.85542 15.2049 4.3724 15.2049H6.24453C6.76151 15.2049 6.91866 15.4463 6.91866 15.7441V17.3619C6.91866 17.6598 6.76151 17.9012 6.24453 17.9012H4.3724C3.85542 17.9012 3.65234 17.6598 3.65234 17.3619V15.7441Z" fill="white"/>
</svg>
