<svg width="20" height="21" viewBox="0 0 20 21" fill="none" xmlns="http://www.w3.org/2000/svg">
<rect y="0.116943" width="20" height="20" rx="5" fill="#98C3DA"/>
<path fill-rule="evenodd" clip-rule="evenodd" d="M7.375 13.792C7.375 13.5504 7.57088 13.3545 7.8125 13.3545H15.6875C15.9291 13.3545 16.125 13.5504 16.125 13.792C16.125 14.0336 15.9291 14.2295 15.6875 14.2295H7.8125C7.57088 14.2295 7.375 14.0336 7.375 13.792Z" fill="white"/>
<path fill-rule="evenodd" clip-rule="evenodd" d="M7.375 10.292C7.375 10.0504 7.57088 9.85449 7.8125 9.85449H15.6875C15.9291 9.85449 16.125 10.0504 16.125 10.292C16.125 10.5336 15.9291 10.7295 15.6875 10.7295H7.8125C7.57088 10.7295 7.375 10.5336 7.375 10.292Z" fill="white"/>
<path fill-rule="evenodd" clip-rule="evenodd" d="M7.375 6.79199C7.375 6.55037 7.57088 6.35449 7.8125 6.35449H15.6875C15.9291 6.35449 16.125 6.55037 16.125 6.79199C16.125 7.03362 15.9291 7.22949 15.6875 7.22949H7.8125C7.57088 7.22949 7.375 7.03362 7.375 6.79199Z" fill="white"/>
<path fill-rule="evenodd" clip-rule="evenodd" d="M4.75 7.66699C5.23325 7.66699 5.625 7.27524 5.625 6.79199C5.625 6.30874 5.23325 5.91699 4.75 5.91699C4.26675 5.91699 3.875 6.30874 3.875 6.79199C3.875 7.27524 4.26675 7.66699 4.75 7.66699Z" fill="white"/>
<path fill-rule="evenodd" clip-rule="evenodd" d="M4.75 11.167C5.23325 11.167 5.625 10.7752 5.625 10.292C5.625 9.80874 5.23325 9.41699 4.75 9.41699C4.26675 9.41699 3.875 9.80874 3.875 10.292C3.875 10.7752 4.26675 11.167 4.75 11.167Z" fill="white"/>
<path fill-rule="evenodd" clip-rule="evenodd" d="M4.75 14.667C5.23325 14.667 5.625 14.2752 5.625 13.792C5.625 13.3087 5.23325 12.917 4.75 12.917C4.26675 12.917 3.875 13.3087 3.875 13.792C3.875 14.2752 4.26675 14.667 4.75 14.667Z" fill="white"/>
</svg>
