<svg width="21" height="20" viewBox="0 0 21 20" fill="none" xmlns="http://www.w3.org/2000/svg">
<rect x="0.5" width="20" height="20" rx="5" fill="#FF8800"/>
<path fill-rule="evenodd" clip-rule="evenodd" d="M14.0754 6.61779C14.0754 8.6108 12.4771 10.2355 10.5165 10.2355C8.53472 10.2355 6.93645 8.6108 6.93645 6.61779C6.93645 4.62476 8.53472 3 10.5165 3C12.4771 3 14.0754 4.62476 14.0754 6.61779ZM11.987 6.61779C11.987 5.79458 11.3263 5.12301 10.5165 5.12301C9.68547 5.12301 9.02482 5.79458 9.04617 6.61779C9.04617 7.441 9.70682 8.11253 10.5165 8.11253C11.3263 8.11253 11.987 7.441 11.987 6.61779Z" fill="white"/>
<path d="M14.0114 12.337C13.3721 12.7485 12.6689 13.0302 11.9444 13.2035L13.9688 15.1965C14.3737 15.6082 14.3737 16.2797 13.9688 16.6913C13.564 17.1029 12.9033 17.1029 12.4985 16.6913L10.5379 14.6982L8.57737 16.6913C8.36426 16.8863 8.10854 16.9946 7.83151 16.9946C7.55448 16.9946 7.29876 16.908 7.08565 16.6913C6.68075 16.2797 6.68075 15.6082 7.08565 15.1965L9.06752 13.1818C8.34294 13.0085 7.63971 12.7269 7.00041 12.3153C6.51027 12.012 6.3611 11.3621 6.63813 10.8638C6.95779 10.3656 7.59709 10.2356 8.08723 10.5389C9.53632 11.4704 11.4329 11.4704 12.882 10.5389C13.3721 10.2139 14.0328 10.3656 14.3311 10.8638C14.6507 11.3621 14.5016 12.0336 14.0114 12.337Z" fill="white"/>
</svg>
