<svg width="30" height="30" viewBox="0 0 30 30" fill="none" xmlns="http://www.w3.org/2000/svg">
<rect width="30" height="30" rx="5" fill="#DDF3FF"/>
<path fill-rule="evenodd" clip-rule="evenodd" d="M12.557 17.4431C12.3374 17.2234 11.9812 17.2234 11.7615 17.4431L7.15332 22.0513L7.15332 18.9375C7.15332 18.6269 6.90148 18.375 6.59082 18.375C6.28016 18.375 6.02832 18.6269 6.02832 18.9375L6.02832 23.4093C6.02832 23.7199 6.28016 23.9718 6.59082 23.9718L11.0625 23.9718C11.3732 23.9718 11.625 23.7199 11.625 23.4093C11.625 23.0986 11.3732 22.8468 11.0625 22.8468L7.94882 22.8468L12.557 18.2386C12.7767 18.0189 12.7767 17.6627 12.557 17.4431Z" fill="#98C3DA"/>
<path fill-rule="evenodd" clip-rule="evenodd" d="M17.443 17.4431C17.6626 17.2234 18.0188 17.2234 18.2385 17.4431L22.8467 22.0513L22.8467 18.9375C22.8467 18.6269 23.0985 18.375 23.4092 18.375C23.7198 18.375 23.9717 18.6269 23.9717 18.9375L23.9717 23.4093C23.9717 23.7199 23.7198 23.9718 23.4092 23.9718L18.9375 23.9718C18.6268 23.9718 18.375 23.7199 18.375 23.4093C18.375 23.0986 18.6268 22.8468 18.9375 22.8468L22.0512 22.8468L17.443 18.2386C17.2233 18.0189 17.2233 17.6627 17.443 17.4431Z" fill="#98C3DA"/>
<path fill-rule="evenodd" clip-rule="evenodd" d="M17.443 12.5569C17.6626 12.7766 18.0188 12.7766 18.2385 12.5569L22.8467 7.94871L22.8467 11.0625C22.8467 11.3731 23.0985 11.625 23.4092 11.625C23.7198 11.625 23.9717 11.3731 23.9717 11.0625L23.9717 6.59071C23.9717 6.28005 23.7198 6.02821 23.4092 6.02821L18.9375 6.02822C18.6268 6.02822 18.375 6.28006 18.375 6.59072C18.375 6.90138 18.6268 7.15322 18.9375 7.15322L22.0512 7.15321L17.443 11.7614C17.2233 11.9811 17.2233 12.3373 17.443 12.5569Z" fill="#98C3DA"/>
<path fill-rule="evenodd" clip-rule="evenodd" d="M12.557 12.5569C12.3374 12.7766 11.9812 12.7766 11.7615 12.5569L7.15332 7.94871L7.15332 11.0625C7.15332 11.3731 6.90148 11.625 6.59082 11.625C6.28016 11.625 6.02832 11.3731 6.02832 11.0625L6.02832 6.59071C6.02832 6.28005 6.28016 6.02821 6.59082 6.02821L11.0625 6.02822C11.3732 6.02822 11.625 6.28006 11.625 6.59072C11.625 6.90138 11.3732 7.15322 11.0625 7.15322L7.94882 7.15321L12.557 11.7614C12.7767 11.9811 12.7767 12.3373 12.557 12.5569Z" fill="#98C3DA"/>
</svg>
