<svg width="20" height="20" viewBox="0 0 20 20" fill="none" xmlns="http://www.w3.org/2000/svg">
<rect width="20" height="20" rx="5" fill="#AFAFBC" fill-opacity="0.8"/>
<g clip-path="url(#clip0_1539_19714)">
<path d="M7.75 10C7.75 10.1989 7.67098 10.3897 7.53033 10.5303C7.38968 10.671 7.19891 10.75 7 10.75C6.80109 10.75 6.61032 10.671 6.46967 10.5303C6.32902 10.3897 6.25 10.1989 6.25 10C6.25 9.80109 6.32902 9.61032 6.46967 9.46967C6.61032 9.32902 6.80109 9.25 7 9.25C7.19891 9.25 7.38968 9.32902 7.53033 9.46967C7.67098 9.61032 7.75 9.80109 7.75 10ZM10.75 10C10.75 10.1989 10.671 10.3897 10.5303 10.5303C10.3897 10.671 10.1989 10.75 10 10.75C9.80109 10.75 9.61032 10.671 9.46967 10.5303C9.32902 10.3897 9.25 10.1989 9.25 10C9.25 9.80109 9.32902 9.61032 9.46967 9.46967C9.61032 9.32902 9.80109 9.25 10 9.25C10.1989 9.25 10.3897 9.32902 10.5303 9.46967C10.671 9.61032 10.75 9.80109 10.75 10ZM13 10.75C13.1989 10.75 13.3897 10.671 13.5303 10.5303C13.671 10.3897 13.75 10.1989 13.75 10C13.75 9.80109 13.671 9.61032 13.5303 9.46967C13.3897 9.32902 13.1989 9.25 13 9.25C12.8011 9.25 12.6103 9.32902 12.4697 9.46967C12.329 9.61032 12.25 9.80109 12.25 10C12.25 10.1989 12.329 10.3897 12.4697 10.5303C12.6103 10.671 12.8011 10.75 13 10.75Z" fill="white"/>
<path d="M5.62375 15.8523L5.63875 15.8492C7.01125 15.577 7.84975 15.2178 8.23975 15.0205C8.81394 15.1736 9.40574 15.2508 10 15.25C13.3135 15.25 16 12.8995 16 10C16 7.1005 13.3135 4.75 10 4.75C6.6865 4.75 4 7.1005 4 10C4 11.32 4.55725 12.5275 5.4775 13.45C5.41312 14.0426 5.28126 14.6259 5.0845 15.1885L5.08225 15.1967C5.02633 15.3579 4.9653 15.5172 4.89925 15.6745C4.84 15.814 4.95475 15.97 5.104 15.946C5.27775 15.9176 5.45102 15.8863 5.62375 15.8523ZM6.22375 13.5212C6.23426 13.4114 6.22041 13.3007 6.18321 13.1968C6.146 13.093 6.08635 12.9986 6.0085 12.9205C5.2135 12.1225 4.75 11.101 4.75 10C4.75 7.606 7.003 5.5 10 5.5C12.997 5.5 15.25 7.606 15.25 10C15.25 12.3947 12.997 14.5 10 14.5C9.47132 14.5008 8.94483 14.4322 8.434 14.296C8.25548 14.2482 8.06559 14.2679 7.90075 14.3515C7.6105 14.4985 6.97075 14.779 5.92525 15.0212C6.07111 14.5316 6.17104 14.0294 6.22375 13.5212Z" fill="white"/>
</g>
<defs>
<clipPath id="clip0_1539_19714">
<rect width="12" height="12" fill="white" transform="translate(4 4)"/>
</clipPath>
</defs>
</svg>
