<svg width="21" height="20" viewBox="0 0 21 20" fill="none" xmlns="http://www.w3.org/2000/svg">
<rect x="0.5" width="20" height="20" rx="5" fill="#188ECA"/>
<path fill-rule="evenodd" clip-rule="evenodd" d="M4.24877 9.23543C7.46998 7.68307 9.61797 6.65967 10.6927 6.16521C13.7613 4.75343 14.399 4.50818 14.8146 4.50009C14.906 4.49831 15.1104 4.52336 15.2428 4.64219C15.3545 4.74252 15.3853 4.87805 15.4 4.97318C15.4147 5.06831 15.4331 5.285 15.4185 5.45433C15.2522 7.38695 14.5327 12.0769 14.1666 14.2415C14.0117 15.1574 13.7067 15.4645 13.4115 15.4945C12.7698 15.5599 12.2825 15.0255 11.661 14.5749C10.6885 13.8697 10.1391 13.4308 9.1951 12.7427C8.10415 11.9475 8.81137 11.5104 9.4331 10.7961C9.59581 10.6092 12.4231 7.76471 12.4778 7.50668C12.4846 7.4744 12.491 7.35411 12.4264 7.29059C12.3618 7.22707 12.2664 7.24879 12.1976 7.26606C12.1 7.29055 10.5464 8.4264 7.53675 10.6736C7.09576 11.0085 6.69633 11.1717 6.33845 11.1632C5.94392 11.1538 5.18499 10.9164 4.62081 10.7136C3.92882 10.4648 3.37884 10.3332 3.42674 9.91069C3.45168 9.6906 3.72569 9.46551 4.24877 9.23543Z" fill="white"/>
</svg>
