<svg width="21" height="20" viewBox="0 0 21 20" fill="none" xmlns="http://www.w3.org/2000/svg">
<rect x="0.5" width="20" height="20" rx="5" fill="black"/>
<path d="M12.5488 11.9309V7.75941C13.352 8.33595 14.3379 8.67685 15.4013 8.67685V7.08311C14.7865 6.95287 14.1256 6.64506 13.6562 6.25744C13.0478 5.75504 12.7427 5.07362 12.5959 4.29199H11.0949L11.0921 12.5157C10.9906 13.4877 10.0094 14.0776 9.37236 14.176C8.77416 14.2684 8.04172 14.0801 7.62276 13.6909C7.11847 13.2224 7.02121 12.669 7.02121 12.0065C7.02121 11.0558 7.82148 10.2069 8.77139 10.2069C8.94863 10.2069 9.12033 10.2373 9.28096 10.2872V8.67963C7.24268 8.72398 5.59766 10.3981 5.59766 12.452C5.59766 13.4442 5.93841 14.176 6.67231 14.8699C7.26533 15.4307 7.97103 15.7088 8.77416 15.7088C10.854 15.7088 12.5488 14.0124 12.5488 11.9309Z" fill="white"/>
</svg>
