<svg width="21" height="20" viewBox="0 0 21 20" fill="none" xmlns="http://www.w3.org/2000/svg">
<rect x="0.5" width="20" height="20" rx="5" fill="#1DA1F2"/>
<path d="M17.3228 6.05255C16.811 6.30447 16.2993 6.38844 15.7024 6.47242C16.2993 6.13653 16.7258 5.63269 16.8963 4.96091C16.3846 5.2968 15.7876 5.46475 15.1054 5.63269C14.5937 5.12886 13.8261 4.79297 13.0585 4.79297C11.2676 4.79297 9.90301 6.47242 10.3294 8.15186C8.02675 8.06789 5.97993 6.97625 4.53009 5.2968C3.76253 6.55639 4.18895 8.15186 5.38293 8.99159C4.95651 8.99159 4.53009 8.82364 4.10367 8.6557C4.10367 9.91528 5.0418 11.0909 6.32106 11.4268C5.89464 11.5108 5.46822 11.5947 5.0418 11.5108C5.38293 12.6024 6.40635 13.4421 7.68561 13.4421C6.6622 14.1979 5.12708 14.6177 3.67725 14.4498C4.95651 15.2055 6.40635 15.7094 7.94147 15.7094C13.1438 15.7094 16.0435 11.4268 15.8729 7.48008C16.4699 7.14419 16.9816 6.64036 17.3228 6.05255Z" fill="white"/>
</svg>
