<svg width="21" height="20" viewBox="0 0 21 20" fill="none" xmlns="http://www.w3.org/2000/svg">
<rect x="0.5" width="20" height="20" rx="5" fill="#CE1B1B"/>
<path d="M16.557 7.07882C16.3976 6.50954 15.9991 6.10291 15.4412 5.94026C14.4848 5.69629 10.4202 5.69629 10.4202 5.69629C10.4202 5.69629 6.43529 5.69629 5.39921 5.94026C4.84132 6.10291 4.44282 6.50954 4.28342 7.07882C4.12402 8.13604 4.12402 10.2505 4.12402 10.2505C4.12402 10.2505 4.12403 12.3649 4.36312 13.4222C4.52252 13.9914 4.92101 14.3981 5.4789 14.5607C6.43528 14.8047 10.4999 14.8047 10.4999 14.8047C10.4999 14.8047 14.4848 14.8047 15.5209 14.5607C16.0788 14.3981 16.4773 13.9914 16.6367 13.4222C16.8758 12.3649 16.8758 10.2505 16.8758 10.2505C16.8758 10.2505 16.8758 8.13604 16.557 7.07882ZM9.22473 12.2023V8.29869L12.5721 10.2505L9.22473 12.2023Z" fill="white"/>
</svg>
